<svg width="50" height="50" viewBox="0 0 94 94" fill="none" xmlns="http://www.w3.org/2000/svg">
<path d="M33.5227 48.4688H60.4743C56.3736 46.5829 51.8087 45.5313 47 45.5313C42.3481 45.5253 37.7502 46.5274 33.5227 48.4688ZM67.5625 54.3438H26.4375L20.5625 70.5L26.4375 88.125H67.5625L73.4375 70.5L67.5625 54.3438Z" fill="#212121"/>
<path d="M67.5626 88.125V54.6199C63.5383 61.8461 55.8655 66.74 47.0001 66.74C42.8026 66.744 38.6808 65.6222 35.0642 63.4915C31.4476 61.3608 28.4686 58.2992 26.4376 54.6258V88.125H14.6876V77.8438C14.6583 67.8269 19.2995 58.8381 26.4376 52.875V52.9132C32.2246 48.1359 39.496 45.5254 47.0001 45.5313C54.8168 45.5313 61.9784 48.2896 67.5626 52.9103V52.875C74.7595 58.8088 79.3126 67.8269 79.3126 77.8438V88.125H67.5626Z" fill="black"/>
<path d="M36.7188 88.0957V72.6738C36.7188 71.8513 36.0725 71.2051 35.25 71.2051C34.4275 71.2051 33.7812 71.8513 33.7812 72.6738V88.0957H36.7188ZM48.4688 88.0957V72.6738C48.4688 71.8513 47.8225 71.2051 47 71.2051C46.1775 71.2051 45.5312 71.8513 45.5312 72.6738V88.0957H48.4688ZM60.2188 88.0957V72.6738C60.2188 71.8513 59.5725 71.2051 58.75 71.2051C57.9275 71.2051 57.2812 71.8513 57.2812 72.6738V88.0957H60.2188Z" fill="black"/>
<path d="M74.4068 40.4788C74.2493 39.962 73.9305 39.5092 73.4971 39.1868C73.0636 38.8643 72.5383 38.6892 71.9981 38.6869C70.8524 38.6869 69.9124 39.4213 69.5893 40.4788L67.8856 46.6769C67.6799 47.3819 68.2087 48.0869 68.9431 48.0869H75.0237C75.7581 48.0869 76.2868 47.3819 76.0812 46.6769L74.4068 40.4788Z" fill="#F9C23C"/>
<path d="M41.4658 49.4528L44.2682 47H49.9376L52.3757 49.7671C51.8176 51.2564 50.9069 52.6106 49.7026 53.6975L47.7932 55.4013C47.3232 55.8125 46.6476 55.8125 46.1776 55.4013L44.2682 53.6975C42.9902 52.5423 42.026 51.0819 41.4658 49.4528Z" fill="#E4B29A"/>
<path d="M65.7416 15.5394C64.8604 14.0119 63.4797 12.9544 61.9522 12.4256C60.2698 11.878 58.8344 10.7546 57.8985 9.25314C57.0293 7.80947 55.6674 6.72881 54.064 6.21053C52.4606 5.69225 50.7238 5.77132 49.1741 6.43314C48.0285 6.93252 46.736 6.93252 45.5904 6.43314C44.7385 6.08064 43.7985 5.87502 42.8291 5.87502C40.3322 5.87502 38.1585 7.16752 36.9247 9.13564C35.9554 10.6631 34.4866 11.8381 32.7829 12.4256C31.1672 12.9838 29.7572 14.1294 28.876 15.745C28.2778 16.8839 28.0026 18.1648 28.0802 19.449C28.1579 20.7331 28.5855 21.9715 29.3166 23.03C29.8454 23.7938 30.1097 24.675 30.1097 25.615V37.8644C30.1097 40.5963 31.8429 43.0344 34.4279 43.9156L39.9797 45.825V23.9994C40.4204 23.5588 40.8022 23.0888 41.1254 22.5306C41.6247 21.6788 41.9185 20.7388 42.0066 19.8281C42.9613 19.9517 43.9313 19.8716 44.8528 19.5932C45.7743 19.3147 46.6264 18.8441 47.3529 18.2125C48.5866 19.2406 50.1435 19.8869 51.8766 19.8869C52.1704 19.8869 52.4347 19.8575 52.6991 19.8281C52.8708 21.4054 53.5755 22.8768 54.6966 23.9994V45.825L60.2485 43.9156C62.8335 43.0344 64.5666 40.5963 64.5666 37.8644V25.615C64.5666 24.7044 64.8604 23.7938 65.3891 23.03C66.9166 20.8856 67.1516 17.9775 65.7416 15.5394Z" fill="#FFF9BA"/>
<path d="M35.5822 16.3208L42.8584 17.5076C45.1949 17.8544 47.5641 17.9254 49.9172 17.7191C51.1951 18.7589 52.8166 19.3582 54.5203 19.3582H58.7209C61.0709 19.4757 62.9216 21.4438 62.8628 23.8232L62.8305 25.242L61.9199 39.8326C61.5493 42.6303 60.1742 45.198 58.0508 47.0571C55.9275 48.9162 53.2006 49.9399 50.3784 49.9376H44.7972C41.9745 49.9406 39.2469 48.9172 37.1229 47.058C34.999 45.1989 33.6235 42.6308 33.2528 39.8326L32.1982 23.7292C32.2111 22.3258 32.5193 20.9408 33.1029 19.6643C33.6864 18.3879 34.5322 17.2487 35.5852 16.3208" fill="#EEBFAA"/>
<path d="M32.3597 26.2378C31.1175 26.3875 29.9794 27.0062 29.1783 27.9674C28.3772 28.9285 27.9737 30.1594 28.0502 31.4083C28.1268 32.6572 28.6776 33.8296 29.5901 34.6858C30.5026 35.5419 31.7078 36.0169 32.959 36.0138H33.0001L34.9154 31.1082L32.3597 26.2378ZM62.1607 35.9962C63.3337 35.8972 64.4321 35.3798 65.2553 34.5382C66.0785 33.6967 66.5716 32.5872 66.6447 31.4122C66.7177 30.2373 66.3658 29.0752 65.6531 28.1382C64.9405 27.2012 63.9146 26.5517 62.7629 26.3083L57.9571 31.1082L62.1607 35.9962Z" fill="#E4B29A"/>
<path d="M35.5822 16.3208L42.8584 17.5076C45.1949 17.8544 47.5641 17.9254 49.9172 17.7191C51.1951 18.7589 52.8166 19.3582 54.5203 19.3582H58.7209C61.0709 19.4757 62.9216 21.4438 62.8628 23.8232L62.8305 25.242L61.9199 39.8326C61.5493 42.6303 60.1742 45.198 58.0508 47.0571C55.9275 48.9162 53.2006 49.9399 50.3784 49.9376H44.7972C41.9745 49.9406 39.2469 48.9172 37.1229 47.058C34.999 45.1989 33.6235 42.6308 33.2528 39.8326L32.1982 23.7292C32.2111 22.3258 32.5193 20.9408 33.1029 19.6643C33.6864 18.3879 34.5322 17.2487 35.5852 16.3208" fill="#EEBFAA"/>
<path d="M47.3821 40.2144C45.7958 40.2144 44.2977 39.8325 43.0346 39.1569C42.594 38.9219 42.1533 39.4213 42.4177 39.8325C43.4752 41.4481 45.2965 42.535 47.3821 42.535C49.4677 42.535 51.289 41.4481 52.3465 39.8325C52.6108 39.4213 52.1408 38.9513 51.7296 39.1569C50.4665 39.8325 48.9977 40.2144 47.3821 40.2144Z" fill="#990838"/>
<path d="M46.4715 30.2856L44.9146 35.3087C44.5915 36.3369 45.3552 37.3944 46.4421 37.3944H48.7334C49.8202 37.3944 50.584 36.3369 50.2609 35.3087L48.704 30.2856C48.3809 29.1987 46.7946 29.1987 46.4715 30.2856Z" fill="#D19479"/>
<path d="M36.1315 30.1975C36.6015 28.3763 38.2465 27.025 40.2146 27.025C42.2415 27.025 43.9453 28.4938 44.3271 30.4032C44.3495 30.5033 44.3487 30.6072 44.3249 30.707C44.3011 30.8067 44.2549 30.8998 44.1898 30.9791C44.1247 31.0583 44.0424 31.1217 43.9491 31.1645C43.8558 31.2072 43.7541 31.2281 43.6515 31.2257H36.954C36.4253 31.2257 36.014 30.7263 36.1315 30.1975ZM58.6621 30.1975C58.1921 28.3763 56.5471 27.025 54.579 27.025C52.5228 27.025 50.8484 28.4938 50.4959 30.4032C50.4078 30.8438 50.7309 31.2257 51.1715 31.2257H57.869C58.3978 31.2257 58.7796 30.7263 58.6621 30.1975Z" fill="white"/>
<path d="M38.1582 30.5207C38.1582 29.052 39.3626 27.8476 40.8313 27.8476C41.2421 27.8495 41.6469 27.9456 42.0147 28.1283C42.3826 28.3111 42.7036 28.5758 42.9532 28.902C43.2029 29.2282 43.3744 29.6072 43.4547 30.0101C43.5349 30.4129 43.5218 30.8287 43.4163 31.2257H38.2463C38.1881 30.9952 38.1585 30.7584 38.1582 30.5207ZM56.6351 30.5207C56.6351 29.052 55.4307 27.8476 53.962 27.8476C53.6098 27.8436 53.2605 27.9101 52.9344 28.043C52.6083 28.176 52.312 28.3727 52.063 28.6217C51.814 28.8708 51.6172 29.167 51.4843 29.4931C51.3513 29.8192 51.2849 30.1686 51.2888 30.5207C51.2888 30.7557 51.3182 30.9907 51.377 31.2257H56.547C56.6057 30.9907 56.6351 30.7557 56.6351 30.5207Z" fill="#7D4533"/>
<path d="M40.8313 28.9931C41.0947 28.9904 41.3542 29.0564 41.5844 29.1845C41.8145 29.3127 42.0073 29.4986 42.1437 29.7239C42.2801 29.9493 42.3554 30.2063 42.3622 30.4696C42.369 30.733 42.3071 30.9935 42.1825 31.2256H39.48C39.3554 30.9935 39.2935 30.733 39.3003 30.4696C39.3071 30.2063 39.3824 29.9493 39.5188 29.7239C39.6552 29.4986 39.848 29.3127 40.0781 29.1845C40.3083 29.0564 40.5679 28.9904 40.8313 28.9931ZM53.9619 28.9931C53.6985 28.9904 53.4389 29.0564 53.2088 29.1845C52.9786 29.3127 52.7859 29.4986 52.6495 29.7239C52.5131 29.9493 52.4377 30.2063 52.4309 30.4696C52.4241 30.733 52.4861 30.9935 52.6106 31.2256H55.3131C55.4377 30.9935 55.4997 30.733 55.4929 30.4696C55.486 30.2063 55.4107 29.9493 55.2743 29.7239C55.1379 29.4986 54.9452 29.3127 54.715 29.1845C54.4849 29.0564 54.2253 28.9904 53.9619 28.9931Z" fill="black"/>
<path d="M40.3907 29.4632C40.3907 29.5878 40.3412 29.7074 40.253 29.7955C40.1649 29.8836 40.0453 29.9332 39.9207 29.9332C39.796 29.9332 39.6765 29.8836 39.5883 29.7955C39.5002 29.7074 39.4507 29.5878 39.4507 29.4632C39.4507 29.3385 39.5002 29.219 39.5883 29.1308C39.6765 29.0427 39.796 28.9932 39.9207 28.9932C40.0453 28.9932 40.1649 29.0427 40.253 29.1308C40.3412 29.219 40.3907 29.3385 40.3907 29.4632ZM53.5801 29.4632C53.5801 29.5878 53.5305 29.7074 53.4424 29.7955C53.3543 29.8836 53.2347 29.9332 53.1101 29.9332C52.9854 29.9332 52.8659 29.8836 52.7777 29.7955C52.6896 29.7074 52.6401 29.5878 52.6401 29.4632C52.6401 29.3385 52.6896 29.219 52.7777 29.1308C52.8659 29.0427 52.9854 28.9932 53.1101 28.9932C53.2347 28.9932 53.3543 29.0427 53.4424 29.1308C53.5305 29.219 53.5801 29.3385 53.5801 29.4632Z" fill="white"/>
<path d="M70.8234 10.575H62.7042L65.5653 15.2456L51.8765 17.4781C48.8803 17.9481 45.8546 17.9481 42.8584 17.5075L29.1696 15.275L32.0484 10.575H23.9115C22.619 10.575 21.5615 9.5175 21.5615 8.225C21.5615 6.9325 22.619 5.875 23.9115 5.875H70.794C72.0865 5.875 73.144 6.9325 73.144 8.225H73.1734V34.31C73.6733 34.5727 74.0708 34.9953 74.3024 35.5103C74.534 36.0254 74.5864 36.6032 74.4511 37.1515C74.3158 37.6998 74.0007 38.1869 73.5562 38.5352C73.1116 38.8834 72.5631 39.0726 71.9984 39.0726C71.4337 39.0726 70.8852 38.8834 70.4406 38.5352C69.996 38.1869 69.681 37.6998 69.5457 37.1515C69.4104 36.6032 69.4628 36.0254 69.6944 35.5103C69.926 34.9953 70.3235 34.5727 70.8234 34.31V10.575Z" fill="#1C1C1C"/>
<path d="M36.5308 23.5176C36.4414 23.5801 36.3655 23.6602 36.308 23.753C36.2504 23.8457 36.2123 23.9492 36.196 24.0571C36.1797 24.1651 36.1856 24.2752 36.2132 24.3808C36.2407 24.4864 36.2895 24.5853 36.3566 24.6715C36.4236 24.7577 36.5074 24.8293 36.603 24.882C36.6986 24.9348 36.8039 24.9675 36.9125 24.9783C37.0211 24.9891 37.1308 24.9776 37.2349 24.9447C37.3389 24.9117 37.4352 24.8579 37.5178 24.7866L37.7969 24.6045C39.0432 23.8786 40.4918 23.5776 41.9241 23.7467C42.1326 23.7649 42.3399 23.7012 42.5022 23.5691C42.6645 23.4369 42.769 23.2468 42.7934 23.0389C42.8179 22.8311 42.7604 22.6219 42.6332 22.4557C42.506 22.2895 42.3191 22.1794 42.1121 22.1487C40.3272 21.9383 38.5224 22.3158 36.9715 23.2239L36.5308 23.5176ZM58.1861 23.5999C58.3423 23.7347 58.4407 23.9244 58.4611 24.1297C58.4814 24.3351 58.4222 24.5404 58.2955 24.7033C58.1688 24.8661 57.9844 24.9741 57.7803 25.005C57.5763 25.0358 57.3682 24.9871 57.1991 24.8689L57.1932 24.8659C56.8269 24.6188 56.4349 24.412 56.0241 24.249C54.9985 23.8432 53.8881 23.6989 52.7928 23.829C52.6863 23.8448 52.5776 23.839 52.4733 23.8121C52.369 23.7851 52.2712 23.7375 52.1856 23.672C52.1001 23.6065 52.0285 23.5245 51.9752 23.4309C51.922 23.3372 51.888 23.2339 51.8754 23.1269C51.8628 23.0199 51.8719 22.9114 51.902 22.808C51.9321 22.7045 51.9826 22.6082 52.0506 22.5246C52.1187 22.4411 52.2028 22.372 52.298 22.3216C52.3932 22.2712 52.4975 22.2403 52.6049 22.231C54.3897 22.0206 56.1945 22.398 57.7455 23.3061C57.8833 23.3885 58.0175 23.4767 58.1479 23.5705L58.1744 23.5881L58.1832 23.5969L58.1861 23.5999Z" fill="#A56953"/>
</svg>
