<svg width="50" height="50" viewBox="0 0 65 65" fill="none" xmlns="http://www.w3.org/2000/svg">
<path fill-rule="evenodd" clip-rule="evenodd" d="M16.9839 5.71996C14.7901 6.00704 13.631 6.53517 12.8022 7.34496C11.9762 8.15746 11.4372 9.29496 11.142 11.4427C10.8387 13.6554 10.8333 16.5858 10.8333 20.7864V43.9968C11.9049 43.2633 13.0951 42.72 14.3514 42.3908C15.7814 42.0143 17.4497 42.0143 19.8953 42.017H54.1666V20.7891C54.1666 16.5858 54.1612 13.6554 53.8578 11.4427C53.5626 9.29496 53.0237 8.15746 52.1976 7.34496C51.3689 6.53517 50.2097 6.00704 48.016 5.71996C45.7572 5.42204 42.7672 5.41663 38.4772 5.41663H26.5226C22.2326 5.41663 19.2426 5.42204 16.9839 5.71996ZM18.3055 17.8614C18.3055 16.6481 19.3076 15.665 20.5453 15.665H44.4545C45.0421 15.6599 45.6078 15.8879 46.0276 16.2991C46.4474 16.7103 46.6871 17.2711 46.6943 17.8587C46.6879 18.4468 46.4484 19.0083 46.0285 19.42C45.6087 19.8318 45.0426 20.0602 44.4545 20.0552H20.5453C19.9577 20.0602 19.3921 19.8322 18.9722 19.421C18.5524 19.0098 18.3127 18.449 18.3055 17.8614ZM20.5453 25.9133C19.9577 25.9082 19.3921 26.1363 18.9722 26.5475C18.5524 26.9586 18.3127 27.5194 18.3055 28.107C18.3055 29.3204 19.3076 30.3035 20.5453 30.3035H35.4872C36.0753 30.3093 36.6417 30.0816 37.0621 29.6703C37.4825 29.259 37.7226 28.6978 37.7297 28.1097C37.7233 27.5212 37.4835 26.9593 37.063 26.5475C36.6425 26.1356 36.0758 25.9075 35.4872 25.9133H20.5453Z" fill="black"/>
<path d="M20.2393 46.4073H54.1666C54.1585 49.4678 54.1098 51.7536 53.8606 53.5573C53.5654 55.7051 53.0264 56.8426 52.2004 57.6551C51.3716 58.4648 50.2125 58.993 48.0187 59.2801C45.76 59.578 42.77 59.5834 38.48 59.5834H26.5227C22.2327 59.5834 19.2427 59.578 16.9839 59.2828C14.7902 58.993 13.631 58.4648 12.8023 57.6551C11.9762 56.8426 11.4373 55.7051 11.142 53.5573C11.031 52.7448 10.9579 51.8321 10.9146 50.7948C11.2866 49.7808 11.8992 48.8723 12.6997 48.1472C13.5003 47.4222 14.4648 46.9023 15.5106 46.6321C16.296 46.4263 17.317 46.4073 20.2393 46.4073Z" fill="black"/>
</svg>
