<svg width="50" height="50" viewBox="0 0 129 129" fill="none" xmlns="http://www.w3.org/2000/svg">
<path d="M64.5001 22.5775L5.66553 44.641L64.5001 74.0583L92.5223 60.0472L66.2343 52.0099C65.693 52.2695 65.1005 52.4049 64.5001 52.4062C63.431 52.4062 62.4056 51.9815 61.6496 51.2255C60.8936 50.4695 60.4689 49.4441 60.4689 48.375C60.4689 47.3058 60.8936 46.2805 61.6496 45.5245C62.4056 44.7685 63.431 44.3437 64.5001 44.3437L63.8334 46.511L68.5039 47.9479L68.5059 47.962L75.3978 50.0696L114.639 62.143V65.2032C114.096 65.5724 113.652 66.0686 113.344 66.6487C113.037 67.2287 112.876 67.8751 112.875 68.5315C112.876 69.203 113.044 69.8637 113.365 70.4535C113.686 71.0434 114.149 71.5438 114.713 71.9092C112.878 78.8442 112.875 94.5789 112.875 100.781C116.906 103.4 116.906 103.496 120.938 100.781C120.938 94.5797 120.936 78.848 119.101 71.9114C119.664 71.5457 120.128 71.0449 120.448 70.4546C120.769 69.8642 120.937 69.2031 120.938 68.5312C120.938 67.8741 120.777 67.2269 120.469 66.646C120.162 66.0652 119.717 65.5683 119.174 65.1987V58.794L104.227 54.1951L123.335 44.641L64.5001 22.5775ZM30.1395 62.7363L26.8331 82.5751C33.428 83.4375 41.3169 87.2708 48.5691 91.8034C52.6936 94.3814 56.5568 97.2111 59.6944 99.9566C61.6122 101.635 63.2159 103.245 64.5001 104.829C65.7843 103.244 67.388 101.635 69.3059 99.9566C72.4434 97.2111 76.3064 94.3814 80.4311 91.8034C87.6833 87.2708 95.5722 83.4375 102.167 82.5751L98.8602 62.7363H97.2855L64.5001 79.1291L31.7142 62.7363H30.1395Z" fill="black"/>
</svg>
